<svg id="Layer_1" data-name="Layer 1" xmlns="http://www.w3.org/2000/svg" viewBox="0 0 1366 768"><defs><style>.cls-1,.cls-10,.cls-11,.cls-13,.cls-14,.cls-15,.cls-16,.cls-25,.cls-28,.cls-29,.cls-3,.cls-30,.cls-5,.cls-6,.cls-7,.cls-8{fill:none;}.cls-1,.cls-10,.cls-16,.cls-3,.cls-5,.cls-6,.cls-7{stroke:#d6ccc2;}.cls-1,.cls-10,.cls-11,.cls-13,.cls-14,.cls-15,.cls-16,.cls-28,.cls-29,.cls-3,.cls-30,.cls-5,.cls-6,.cls-7,.cls-8{stroke-miterlimit:10;}.cls-1{stroke-width:4px;}.cls-2{fill:#d6ccc2;}.cls-4{fill:#999;}.cls-5{stroke-width:5.3px;}.cls-6{stroke-width:1.5px;}.cls-7{stroke-width:4.5px;}.cls-11,.cls-14,.cls-15,.cls-28,.cls-29,.cls-30,.cls-8{stroke:#1e1e1e;}.cls-8{stroke-width:10.7px;}.cls-12,.cls-9{fill:#1e1e1e;}.cls-10{stroke-width:4.4px;}.cls-11{stroke-width:40px;}.cls-12,.cls-19{fill-rule:evenodd;}.cls-13{stroke:#000;stroke-width:6px;}.cls-14{stroke-width:5.6px;}.cls-15{stroke-width:7.5px;}.cls-16{stroke-width:5px;}.cls-17{fill:#f2f2f2;}.cls-18,.cls-19,.cls-20,.cls-21,.cls-22,.cls-23,.cls-27,.cls-32,.cls-38{fill:#fff;}.cls-20,.cls-21,.cls-26{font-size:27.31px;}.cls-20,.cls-21,.cls-22,.cls-24,.cls-26,.cls-27,.cls-31{font-family:Helvetica;}.cls-21{letter-spacing:0em;}.cls-22{font-size:31.36px;}.cls-23{font-size:23.67px;}.cls-24{font-weight:400;font-style:normal;}.cls-25{font-size:12px;}.cls-27{font-size:21.85px;}.cls-28{stroke-width:12px;}.cls-29{stroke-width:10px;}.cls-31,.cls-32,.cls-38{font-size:24px;}.cls-32,.cls-38{font-family:MyriadPro-Regular, Myriad Pro;}.cls-33,.cls-38{letter-spacing:-0.03em;}.cls-34{letter-spacing:-0.01em;}.cls-35{letter-spacing:-0.01em;}.cls-36{letter-spacing:0em;}.cls-37{letter-spacing:0.02em;}.cls-39{letter-spacing:0em;}.cls-40{letter-spacing:-0.02em;}.cls-41{letter-spacing:-0.01em;}.cls-42{letter-spacing:-0.01em;}</style></defs><line class="cls-1" x1="603.61" y1="209.01" x2="565.04" y2="148.47"/><polygon class="cls-2" points="557.55 154.79 573.94 144.34 560.52 141.37 557.55 154.79"/><line class="cls-3" x1="594.9" y1="223.27" x2="648.57" y2="145.69"/><polygon class="cls-2" points="643.11 142.91 653.1 149.82 651.56 141.37 643.11 142.91"/><line class="cls-4" x1="1056.79" y1="501.08" x2="1056.79" y2="612.18"/><line class="cls-5" x1="1056.79" y1="501.08" x2="1056.79" y2="603.82"/><polygon class="cls-2" points="1066.45 602.52 1047.13 602.52 1056.79 612.18 1066.45 602.52"/><line class="cls-6" x1="376.24" y1="362.11" x2="331.08" y2="219.97"/><polygon class="cls-2" points="322.77 223.89 340.14 218.38 328.7 212.45 322.77 223.89"/><line class="cls-3" x1="374.74" y1="359.36" x2="427.98" y2="217.38"/><polygon class="cls-2" points="422 216.01 433.38 220.27 429.82 212.45 422 216.01"/><line class="cls-7" x1="824.57" y1="354.43" x2="778.48" y2="223.88"/><polygon class="cls-2" points="771.12 227.65 786.58 222.19 776.12 217.19 771.12 227.65"/><line class="cls-3" x1="827.94" y1="353.79" x2="869.63" y2="222.27"/><polygon class="cls-2" points="863.59 221.21 875.17 224.88 871.22 217.25 863.59 221.21"/><line class="cls-8" x1="897.35" y1="426.07" x2="970.72" y2="426.07"/><polygon class="cls-9" points="968.97 413.07 968.97 439.07 981.97 426.07 968.97 413.07"/><line class="cls-4" x1="379.26" y1="494.74" x2="427.36" y2="599.54"/><line class="cls-3" x1="379.26" y1="494.74" x2="426.7" y2="598.1"/><polygon class="cls-2" points="428.25 597.12 424.94 598.64 427.36 599.54 428.25 597.12"/><line class="cls-4" x1="382" y1="494.74" x2="328.7" y2="604.34"/><line class="cls-10" x1="382" y1="494.74" x2="331.73" y2="598.09"/><polygon class="cls-2" points="339.41 600.63 324.99 593.62 328.7 604.34 339.41 600.63"/><line class="cls-11" x1="422.52" y1="404.51" x2="520.5" y2="341.17"/><polygon class="cls-9" points="496.61 313.22 536.18 374.43 547 324.04 496.61 313.22"/><path class="cls-12" d="M450,425.47a75.39,75.39,0,1,1-29-59.6A75.42,75.42,0,0,1,450,425.47Z"/><ellipse class="cls-9" cx="606.06" cy="279.29" rx="77.58" ry="77.91"/><ellipse class="cls-9" cx="827.94" cy="427.45" rx="77.99" ry="77.97"/><ellipse class="cls-9" cx="1059.28" cy="429.99" rx="77.93" ry="77.97"/><ellipse class="cls-9" cx="1272" cy="425.47" rx="77.54" ry="77.58"/><line class="cls-13" x1="677.24" y1="292.79" x2="765.96" y2="369.56"/><polygon points="771 361.87 759.07 375.65 771.92 374.72 771 361.87"/><line class="cls-14" x1="1132" y1="425.84" x2="1188.38" y2="425.52"/><polygon class="cls-9" points="1186.95 415.32 1187.07 435.73 1197.21 425.47 1186.95 415.32"/><line class="cls-15" x1="448.09" y1="428.97" x2="737.48" y2="428.59"/><polygon class="cls-9" points="735.63 414.92 735.67 442.26 749.31 428.57 735.63 414.92"/><circle class="cls-2" cx="334.53" cy="176.42" r="35.05"/><circle class="cls-2" cx="434.62" cy="177.44" r="35.05"/><circle class="cls-2" cx="328.7" cy="634.59" r="35.05"/><circle class="cls-2" cx="429.82" cy="634.59" r="35.05"/><ellipse class="cls-2" cx="560" cy="107.06" rx="35.05" ry="34.73"/><ellipse class="cls-2" cx="656.61" cy="111.54" rx="35.05" ry="30.53"/><text/><circle class="cls-2" cx="824.88" cy="634.59" r="35.05"/><circle class="cls-2" cx="774.01" cy="182.2" r="35.05"/><circle class="cls-2" cx="875.14" cy="182.2" r="35.05"/><ellipse class="cls-2" cx="1056.79" cy="643.61" rx="35.05" ry="30.25"/><line class="cls-4" x1="824.57" y1="503.82" x2="824.88" y2="599.61"/><line class="cls-3" x1="824.57" y1="503.82" x2="824.86" y2="594.35"/><polygon class="cls-2" points="830.93 593.52 818.78 593.55 824.88 599.61 830.93 593.52"/><path class="cls-16" d="M604.83,357.2v58h-.53a11.14,11.14,0,0,0-.6,22.26c.37,0,.75,0,1.13,0v50.12"/><polygon class="cls-2" points="613.94 486.43 595.72 486.43 604.83 495.53 613.94 486.43"/><path class="cls-17" d="M399.64,448.31a25.12,25.12,0,0,1-2.73-2.65,24,24,0,0,0-2.65-2.59,19.14,19.14,0,0,0-5.73-3.22c-3.71-1.25-7.27-1.18-9.86.21l-.14.07a12.6,12.6,0,0,0-2.94,3.15,14.77,14.77,0,0,0-1.81,4.12,12.48,12.48,0,0,0-.21,2.1,17.48,17.48,0,0,0-2.87,1.12,8.93,8.93,0,0,1,.21-3.71,11.49,11.49,0,0,1,1.47-2.93,65.69,65.69,0,0,1,5.17-6.78l1.05-1.26.21-.07s1.19-.91,1.33-1a12.16,12.16,0,0,1,1.33-.7,8.63,8.63,0,0,0,2-1.12,9.85,9.85,0,0,0,3.08-3.28,8.59,8.59,0,0,0,.7-4.47,8.73,8.73,0,0,1,.14-2.73l.63-2.1-2.1.7c-.7.21-1.47.35-2.24.56a13.52,13.52,0,0,0-2.3.56,12.41,12.41,0,0,0-3.78,2,8.15,8.15,0,0,0-3.35,5.59v.14a9,9,0,0,0,.7,2.79c.07.14.14.21.14.35a6.45,6.45,0,0,0,1.11,1.75c.07.07.14.14.21.14a4.9,4.9,0,0,0-.56.7,69.78,69.78,0,0,0-5.38,7,15.52,15.52,0,0,0-1.74,3.42,7.81,7.81,0,0,0-.35,2.17l-.56-.77a23.9,23.9,0,0,1,.42-3.77,25.74,25.74,0,0,0,.49-4.06,16.34,16.34,0,0,0-1.68-7.06,15.07,15.07,0,0,0-8.88-7.89h-.07a20.5,20.5,0,0,0-5.73-.28,29.19,29.19,0,0,0-5.94,1.26,14.3,14.3,0,0,0-3.29,1.88l-.83.63,1.39,2.17a30.54,30.54,0,0,1,2.45,5c.28.7.56,1.33.84,2a16.52,16.52,0,0,0,4.61,6.43c2.45,1.95,5.52,2.58,8.39,3.14a22.85,22.85,0,0,1,5.87,1.75,23.4,23.4,0,0,1,2.38,4l.35.84a40.77,40.77,0,0,1-2.8,25.65,6.16,6.16,0,0,0-1.05.35,14.91,14.91,0,0,0-2.86,1.82,9.32,9.32,0,0,0-2.1,2h17.47a13.1,13.1,0,0,0-5-3.71,10.2,10.2,0,0,0-3.84-.77,42.85,42.85,0,0,0,2.37-25.86,23.3,23.3,0,0,1,4.13-1.53l.9.21a37.24,37.24,0,0,1,4.69,1.6c.63.21,1.19.49,1.74.7a17.65,17.65,0,0,0,5.95,1.33h.76c2.59-.21,4.48-1.54,6.22-2.8a13.24,13.24,0,0,1,4-2.16l2.1-.63Z"/><path class="cls-18" d="M642.32,294l-1.74-.58h-4.13l-5.79-1.36-6.79,13H592.66a5.16,5.16,0,0,0-4.78,3.4h-6.33L584.12,329h-3.21l-5.14-20.4-2.67,4V329h-3.21l-1.29-19.14,1.29-8.15-1.29-9.52v-9.62a2.65,2.65,0,0,0-2.57,2.72v23.22h-2.57V285.25a5.29,5.29,0,0,1,5.14-5.44h51.23l7.25-1.26-2.84-2.91h2.57a4.84,4.84,0,0,1,2.29.68l2.21,1.45.45-.09-.82-2a3.94,3.94,0,0,1,3.49-5.54h7.25l-5.51,2.24a2.18,2.18,0,0,0-1.1,2.81l.73,1.65a2.46,2.46,0,0,1,2.76,1.17L645.72,289a2.92,2.92,0,0,1,0,3.21l-.55.58A2.6,2.6,0,0,1,642.32,294Zm-1.56,19-4.59-7.28a2.09,2.09,0,0,0-2.11-1l-.46.1-.92-1.07a1.79,1.79,0,0,0-1.56-.87h-.64v2.72l-6.7,1.46H592.66a3.34,3.34,0,0,0-3.22,3.39v15.16h2V311.09a1.6,1.6,0,0,1,1.56-1.65v2.81l1.47,8.45L593,325.75,595,337.6h2.11l-.73-9.52,3.67-5.73,12.49,1.85.73,13.4h2.11l.74-12.92,1.74.3,2.57,12.62h2.11L621,325.36l9.09-9.42a2.52,2.52,0,0,1,2.57-.68l2.11.68a2.36,2.36,0,0,0,.83.1h3.49a1.13,1.13,0,0,0,1-.68l.55-1.07A1.27,1.27,0,0,0,640.76,313Zm-41.49,14.18L604,337.5h2.11L602.85,328l1.28-3.11-3.12-.49Z"/><path class="cls-18" d="M805.32,462.49l5.78.91-2.41,6,4.88,15.13h-3.26L802.65,467Zm61.43-16.93L859.6,433.9a3,3,0,0,0-3.17-1.41l-.78.18-1.18-1.91a2.79,2.79,0,0,0-2.36-1.37h-.93v4.32l-10.4,2.4H793.71a5.16,5.16,0,0,0-4.89,5.39v24.21h2.45V441.5a2.58,2.58,0,0,1,2.44-2.7v5.39L796,457.63l-2.26,8.08,2.93,18.84h3.25l-1.15-15.13,5.68-9.11,19.13,2.87,1.09,21.37h3.25L829.08,464l2.67.4,4,20.15H839l-2.23-19.47,14-15a3.77,3.77,0,0,1,4-1.08l3.21,1.06a4.05,4.05,0,0,0,1.29.21h5.33a1.75,1.75,0,0,0,1.54-1l.81-1.64A2.1,2.1,0,0,0,866.75,445.56Z"/><ellipse class="cls-18" cx="1274.86" cy="433.09" rx="15.23" ry="15.28"/><path class="cls-18" d="M1299.51,483.49h-49.3V467.67A15.73,15.73,0,0,1,1266,451.86h17.84a15.73,15.73,0,0,1,15.76,15.81Z"/><path class="cls-19" d="M1046,430h3.44l1.61,18.66-2.19-1.45V456l-4.83-3.2Zm-9,19.92,13.29,8.84v-8.84l13.29,8.84v-8.84l14.09,9.36V441.35h2.36V436.5h5.71l.78-19.53h1.69l.78,19.53h5.52v4.85h2.36v38.82h-73.16V449.91l13.29,8.84Zm47.74-6h2.14v4h-2.14Zm-17,21.28H1070v4h-2.14Zm2.86,4.71h2.14v4h-2.14Zm0-4.71h2.14v4h-2.14Zm-2.86,4.71H1070v4h-2.14Zm-7.85-4.71h2.14v4H1060Zm2.86,4.71H1065v4h-2.14Zm0-4.71H1065v4h-2.14Zm-2.86,4.71h2.14v4H1060Zm-7.85-4.71h2.14v4h-2.14Zm2.86,4.71h2.13v4H1055Zm0-4.71h2.13v4H1055Zm-2.86,4.71h2.14v4h-2.14Zm-7.85-4.71h2.14v4h-2.14Zm2.86,4.71h2.13v4h-2.13Zm0-4.71h2.13v4h-2.13Zm-2.86,4.71h2.14v4h-2.14Zm-7.85-4.71h2.14v4h-2.14Zm2.86,4.71h2.13v4h-2.13Zm0-4.71h2.13v4h-2.13Zm-2.86,4.71h2.14v4h-2.14Zm-7.85-4.71h2.13v4h-2.13Zm2.86,4.71h2.13v4h-2.13Zm0-4.71h2.13v4h-2.13Zm-2.86,4.71h2.13v4h-2.13Zm56.18-4.71h2.13v4h-2.13Zm2.85,4.71h2.14v4h-2.14Zm0-4.71h2.14v4h-2.14Zm-2.85,4.71h2.13v4h-2.13Zm0-15.35h2.13v4h-2.13Zm2.85,4.71h2.14v4h-2.14Zm0-4.71h2.14v4h-2.14Zm-2.85,4.71h2.13v4h-2.13Zm2.85-10.65h2.14v4h-2.14Zm0-4.7h2.14v4h-2.14Zm-2.85,4.7h2.13v4h-2.13Zm-24.36-29.19h3.72l2.63,30.81-4.63-3.07V456l-4.58-3.06Z"/><text class="cls-20" transform="translate(306.61 190.69) scale(1.06 1)">NH</text><text class="cls-21" transform="translate(348.56 199.78) scale(0.62 0.58)">3</text><text class="cls-20" transform="translate(531.51 119.84) scale(1.06 1)">NH</text><text class="cls-21" transform="translate(573.46 128.93) scale(0.62 0.58)">3</text><text class="cls-22" transform="translate(749.83 191.17) scale(0.93 1)">NH</text><text class="cls-22" transform="translate(791.77 201.61) scale(0.54 0.58)">3</text><text class="cls-20" transform="translate(408.37 190.39)">N</text><text class="cls-20" transform="translate(428.1 199.48) scale(0.58)">2</text><text class="cls-20" transform="translate(436.95 190.39)">O</text><text class="cls-20" transform="translate(852.5 190.11)">N</text><text class="cls-20" transform="translate(872.23 199.2) scale(0.58)">2</text><text class="cls-20" transform="translate(881.08 190.11)">O</text><text class="cls-20" transform="translate(634.68 119.54)">N</text><text class="cls-20" transform="translate(654.41 128.63) scale(0.58)">2</text><text class="cls-20" transform="translate(663.26 119.54)">O</text><text class="cls-20" transform="translate(302.93 643.31)">NO</text><text class="cls-20" transform="translate(343.89 652.4) scale(0.58)">3<tspan x="15.19" y="-31.2">-</tspan></text><text class="cls-23" transform="translate(442.8 631.06) scale(0.65 0.58)"><tspan class="cls-24">3</tspan><tspan class="cls-25"></tspan></text><path class="cls-18" d="M405.14,606.2h3l9.46,13.71V606.2h2.46v17H417.2l-9.6-13.7v13.7h-2.46Z"/><path class="cls-18" d="M439.87,608.62a8.7,8.7,0,0,1,1.89,5.77,9.36,9.36,0,0,1-2.16,6.32,9,9,0,0,1-7.22,3,8.34,8.34,0,0,1-9.12-8.9,9.31,9.31,0,0,1,1.91-5.89q2.46-3.15,7.26-3.15C435.78,605.73,438.26,606.7,439.87,608.62Zm-2.26,10.83a8.6,8.6,0,0,0,1.51-5,6.66,6.66,0,0,0-1.75-4.82,6.29,6.29,0,0,0-4.78-1.83,6.59,6.59,0,0,0-4.81,1.81,7.13,7.13,0,0,0-1.86,5.34,7.26,7.26,0,0,0,1.6,4.76c1.06,1.29,2.79,1.94,5.17,1.94A5.58,5.58,0,0,0,437.61,619.45Z"/><path class="cls-18" d="M444,630.38a3.25,3.25,0,0,1-.87-2.29h1.42a2.86,2.86,0,0,0,.39,1.36,2.16,2.16,0,0,0,1.91.76,2.68,2.68,0,0,0,1.71-.51,1.61,1.61,0,0,0,.65-1.32,1.48,1.48,0,0,0-.68-1.39,3.74,3.74,0,0,0-1.89-.4h-.56v-1.07l.35,0h.31a3.18,3.18,0,0,0,1.25-.22,1.36,1.36,0,0,0,.86-1.35,1.27,1.27,0,0,0-.57-1.11,2.32,2.32,0,0,0-1.34-.39,2.05,2.05,0,0,0-1.87.81,2.51,2.51,0,0,0-.32,1.27h-1.35a3.39,3.39,0,0,1,.49-1.84,3.13,3.13,0,0,1,2.91-1.35,4.25,4.25,0,0,1,2.55.66,2.2,2.2,0,0,1,.91,1.91,2,2,0,0,1-.54,1.44,2.18,2.18,0,0,1-.86.54,2.35,2.35,0,0,1,1.33.8,2.27,2.27,0,0,1,.48,1.46,2.82,2.82,0,0,1-1,2.25,4.27,4.27,0,0,1-2.88.87A3.58,3.58,0,0,1,444,630.38Z"/><path class="cls-18" d="M452,610.82h3.78v1.25H452Z"/><path class="cls-18" d="M408.45,634.6h3l9.47,13.72V634.6h2.45v17H420.5l-9.6-13.7v13.7h-2.45Z"/><path class="cls-18" d="M427.61,634.6h2.6v7H440v-7h2.6v17H440v-7.94h-9.75v7.94h-2.6Z"/><path class="cls-18" d="M449.76,659.46V657.1H445v-1.18l4.94-6.13h1.14v6.26h1.59v1.05h-1.59v2.36Zm0-3.41v-4.39l-3.45,4.39Z"/><text class="cls-20" transform="translate(800.47 643.31)">NO</text><text class="cls-20" transform="translate(841.44 652.4) scale(0.58)">3<tspan x="15.19" y="-31.2">-</tspan></text><text class="cls-26" transform="translate(305.91 696.5)">202</text><text class="cls-26" transform="translate(414.63 696.5)">48</text><text class="cls-26" transform="translate(319.34 138.5)">78</text><text class="cls-26" transform="translate(419.43 138.5)">10</text><text class="cls-26" transform="translate(537.74 71.2)">248</text><text class="cls-26" transform="translate(649.64 72.33)">7</text><text class="cls-26" transform="translate(749.14 139.2)">180</text><text class="cls-26" transform="translate(859.95 138.5)">14</text><text class="cls-26" transform="translate(809.38 696.5)">24</text><text class="cls-26" transform="translate(1037.92 696.8)">215</text><text class="cls-27" transform="translate(1029.64 649.06)">waste</text><text class="cls-26" transform="translate(583.26 590.83)">305</text><text class="cls-26" transform="translate(503.34 399.04)">1865</text><text class="cls-26" transform="translate(701.79 465.89)">337</text><text class="cls-26" transform="translate(707.19 387.98)">240</text><text class="cls-26" transform="translate(935.3 466.21)">430</text><text class="cls-26" transform="translate(1152.98 466.53)">225</text><circle class="cls-2" cx="604.83" cy="530.59" r="35.05"/><text class="cls-20" transform="translate(580.05 538.31)">NO</text><text class="cls-20" transform="translate(621.02 547.41) scale(0.58)">3<tspan x="15.19" y="-31.2">-</tspan></text><line class="cls-28" x1="177.48" y1="427.45" x2="263.56" y2="427.45"/><polygon class="cls-9" points="260.63 405.59 260.63 449.32 282.49 427.45 260.63 405.59"/><line class="cls-28" x1="420.06" y1="345.68" x2="554.72" y2="258.62"/><polygon class="cls-9" points="410.65 325.72 434.39 362.45 404.16 355.96 410.65 325.72"/><text class="cls-26" transform="translate(421.05 308.22)">580</text><line class="cls-29" x1="177.48" y1="480.55" x2="263.56" y2="480.55"/><polygon class="cls-9" points="261.12 462.33 261.12 498.78 279.33 480.55 261.12 462.33"/><line class="cls-30" x1="177.48" y1="374.36" x2="263.56" y2="374.36"/><polygon class="cls-9" points="262.34 365.25 262.34 383.47 271.44 374.36 262.34 365.25"/><text class="cls-26" transform="translate(179.76 368)">45</text><text class="cls-26" transform="translate(178.87 417.09)">496</text><text class="cls-26" transform="translate(178.87 471.85)">412</text><path d="M59.75,331.64H67.2c2,0,3.47.6,4.32,1.8a4.1,4.1,0,0,1,.76,2.46,3.84,3.84,0,0,1-.93,2.67,4.41,4.41,0,0,1-1.38,1,6,6,0,0,1,2,1.14,4.09,4.09,0,0,1,1.16,3.1,4.76,4.76,0,0,1-1,3c-1,1.35-2.71,2-5,2H59.75Zm6.57,7.27a5.29,5.29,0,0,0,2.33-.41,2.37,2.37,0,0,0,1.3-2.32,2.23,2.23,0,0,0-1.39-2.27,6.23,6.23,0,0,0-2.32-.33H62v5.33Zm.79,7.95a3.62,3.62,0,0,0,3.09-1.24,3.11,3.11,0,0,0,.58-1.9,2.53,2.53,0,0,0-1.69-2.56,6.51,6.51,0,0,0-2.38-.36H62v6.06Z"/><path d="M75.54,331.64h2.14V334H75.54Zm0,4.72h2.14v12.49H75.54Z"/><path d="M90,337.55a6.34,6.34,0,0,1,1.67,4.76,8.18,8.18,0,0,1-1.47,5,5.29,5.29,0,0,1-4.55,2,5.14,5.14,0,0,1-4.08-1.75A7,7,0,0,1,80,342.84a7.53,7.53,0,0,1,1.6-5,5.32,5.32,0,0,1,4.28-1.87A5.64,5.64,0,0,1,90,337.55Zm-1.31,8.34a7.85,7.85,0,0,0,.77-3.53,6.32,6.32,0,0,0-.55-2.85,3.12,3.12,0,0,0-3-1.73,3,3,0,0,0-2.78,1.47,6.88,6.88,0,0,0-.87,3.56,6,6,0,0,0,.87,3.34,3.05,3.05,0,0,0,2.76,1.33A2.86,2.86,0,0,0,88.65,345.89Z"/><path d="M94.28,331.64h2.11v17.21H94.28Z"/><path d="M108.64,337.55a6.34,6.34,0,0,1,1.67,4.76,8.18,8.18,0,0,1-1.47,5,5.29,5.29,0,0,1-4.55,2,5.13,5.13,0,0,1-4.08-1.75,7,7,0,0,1-1.52-4.71,7.53,7.53,0,0,1,1.6-5,5.32,5.32,0,0,1,4.28-1.87A5.64,5.64,0,0,1,108.64,337.55Zm-1.31,8.34a7.85,7.85,0,0,0,.77-3.53,6.32,6.32,0,0,0-.55-2.85,3.12,3.12,0,0,0-3-1.73,3,3,0,0,0-2.78,1.47,6.88,6.88,0,0,0-.87,3.56,6,6,0,0,0,.87,3.34,3.05,3.05,0,0,0,2.76,1.33A2.86,2.86,0,0,0,107.33,345.89Z"/><path d="M119.87,336.8a5.94,5.94,0,0,1,1.22,1.2v-1.58H123v11.41a8.39,8.39,0,0,1-.7,3.77q-1.31,2.56-4.94,2.56a6,6,0,0,1-3.4-.91,3.53,3.53,0,0,1-1.54-2.84h2.15a2.39,2.39,0,0,0,.6,1.3,3.09,3.09,0,0,0,2.24.7c1.61,0,2.66-.57,3.16-1.71a9.86,9.86,0,0,0,.41-3.6,4,4,0,0,1-1.52,1.43,4.93,4.93,0,0,1-2.35.47,5,5,0,0,1-3.55-1.44c-1-1-1.53-2.56-1.53-4.79a7.29,7.29,0,0,1,1.54-4.92,4.74,4.74,0,0,1,3.71-1.77A4.55,4.55,0,0,1,119.87,336.8Zm.26,2.27a3.22,3.22,0,0,0-5.47,1,8.35,8.35,0,0,0-.43,2.91,5.2,5.2,0,0,0,.86,3.23,2.76,2.76,0,0,0,2.3,1.11,3.24,3.24,0,0,0,3.19-2,6.69,6.69,0,0,0,.51-2.71A5.22,5.22,0,0,0,120.13,339.07Z"/><path d="M126.24,331.64h2.15V334h-2.15Zm0,4.72h2.15v12.49h-2.15Z"/><path d="M139.87,337a5,5,0,0,1,1.6,3.55h-2.05a3.81,3.81,0,0,0-.86-1.93,2.7,2.7,0,0,0-2.14-.77,3,3,0,0,0-2.89,2,7.89,7.89,0,0,0-.56,3.15,5.94,5.94,0,0,0,.8,3.17,2.74,2.74,0,0,0,2.51,1.29,2.78,2.78,0,0,0,2.08-.8,4.5,4.5,0,0,0,1.06-2.19h2.05a5,5,0,0,1-5.36,4.8,4.8,4.8,0,0,1-3.92-1.79,6.88,6.88,0,0,1-1.47-4.5,7.56,7.56,0,0,1,1.61-5.14,5.17,5.17,0,0,1,4.09-1.84A5.47,5.47,0,0,1,139.87,337Z"/><path d="M150.3,341.25a1.15,1.15,0,0,0,1-.6,2,2,0,0,0,.14-.82,1.73,1.73,0,0,0-.77-1.57,4.14,4.14,0,0,0-2.19-.48,2.8,2.8,0,0,0-2.34.89,2.86,2.86,0,0,0-.5,1.47h-2a3.63,3.63,0,0,1,1.5-3.23,6.12,6.12,0,0,1,3.35-.91,6.85,6.85,0,0,1,3.6.84,2.87,2.87,0,0,1,1.37,2.62v7.24a.91.91,0,0,0,.13.52.66.66,0,0,0,.57.2,1.89,1.89,0,0,0,.32,0l.37,0v1.56a5.83,5.83,0,0,1-.75.17,4.31,4.31,0,0,1-.7,0,1.73,1.73,0,0,1-1.58-.77,2.88,2.88,0,0,1-.37-1.16,5.29,5.29,0,0,1-1.85,1.46,5.64,5.64,0,0,1-2.66.62,3.94,3.94,0,0,1-2.85-1.06,3.5,3.5,0,0,1-1.11-2.65,3.4,3.4,0,0,1,1.09-2.7,5.14,5.14,0,0,1,2.86-1.18Zm-4.44,5.7a2.49,2.49,0,0,0,1.58.53,4.74,4.74,0,0,0,2.16-.52,2.89,2.89,0,0,0,1.76-2.79v-1.7a3.46,3.46,0,0,1-1,.41,8.65,8.65,0,0,1-1.19.24l-1.27.16a4.89,4.89,0,0,0-1.73.48,1.88,1.88,0,0,0-1,1.76A1.74,1.74,0,0,0,145.86,347Z"/><path d="M157,331.64h2.11v17.21H157Z"/><path d="M87.2,361.27a3.23,3.23,0,0,1,2.85-1.08h.41l.48,0v1.92l-.48,0h-.28c-.65,0-1,.17-1.16.5a9.58,9.58,0,0,0-.19,2.54h2.11v1.66H88.83v10.83H86.74V366.82H85v-1.66h1.75v-2A3.64,3.64,0,0,1,87.2,361.27Z"/><path d="M92.88,360.44H95v2.39H92.88Zm0,4.72H95v12.49H92.88Z"/><path d="M97,365.1h2.73l2.88,4.42,2.92-4.42,2.57.06-4.23,6.06,4.41,6.43h-2.69l-3.12-4.71-3,4.71H96.8l4.41-6.43Z"/><path d="M116.94,370.05a1.14,1.14,0,0,0,1-.6,1.8,1.8,0,0,0,.14-.82,1.73,1.73,0,0,0-.76-1.57,4.15,4.15,0,0,0-2.2-.48,2.79,2.79,0,0,0-2.33.89,3,3,0,0,0-.51,1.47h-2a3.61,3.61,0,0,1,1.51-3.23,6.12,6.12,0,0,1,3.35-.92,6.81,6.81,0,0,1,3.59.85,2.85,2.85,0,0,1,1.37,2.62v7.24a.91.91,0,0,0,.14.52.66.66,0,0,0,.57.2l.31,0,.38-.05v1.56a5.83,5.83,0,0,1-.75.17,4.39,4.39,0,0,1-.7,0,1.76,1.76,0,0,1-1.59-.77,3.05,3.05,0,0,1-.36-1.16,5.38,5.38,0,0,1-1.85,1.46,5.67,5.67,0,0,1-2.66.62,4,4,0,0,1-2.86-1.06,3.53,3.53,0,0,1-1.1-2.65,3.4,3.4,0,0,1,1.09-2.7,5.11,5.11,0,0,1,2.86-1.18Zm-4.44,5.7a2.47,2.47,0,0,0,1.58.53,4.77,4.77,0,0,0,2.16-.52A2.88,2.88,0,0,0,118,373v-1.7a3.28,3.28,0,0,1-1,.41,8.65,8.65,0,0,1-1.19.24l-1.28.16a4.83,4.83,0,0,0-1.72.48,1.88,1.88,0,0,0-1,1.76A1.71,1.71,0,0,0,112.5,375.75Z"/><path d="M124,361.6h2.14v3.5h2v1.72h-2V375a.88.88,0,0,0,.44.88,1.85,1.85,0,0,0,.82.13h.33a2.17,2.17,0,0,0,.41,0v1.68a4.45,4.45,0,0,1-.76.15,7.34,7.34,0,0,1-.85.05,2.27,2.27,0,0,1-2-.76,3.34,3.34,0,0,1-.53-2v-8.31h-1.7V365.1H124Z"/><path d="M130.23,360.44h2.14v2.39h-2.14Zm0,4.72h2.14v12.49h-2.14Z"/><path d="M144.65,366.35a6.34,6.34,0,0,1,1.67,4.76,8.18,8.18,0,0,1-1.47,5,5.27,5.27,0,0,1-4.55,2,5.14,5.14,0,0,1-4.08-1.75,7,7,0,0,1-1.51-4.71,7.53,7.53,0,0,1,1.59-5,5.32,5.32,0,0,1,4.28-1.87A5.62,5.62,0,0,1,144.65,366.35Zm-1.3,8.34a8,8,0,0,0,.77-3.53,6.31,6.31,0,0,0-.56-2.85,3.12,3.12,0,0,0-3-1.73,3,3,0,0,0-2.78,1.47,6.88,6.88,0,0,0-.87,3.56,6,6,0,0,0,.87,3.34,3.07,3.07,0,0,0,2.76,1.33A2.89,2.89,0,0,0,143.35,374.69Z"/><path d="M148.91,365.1h2v1.78a5.77,5.77,0,0,1,1.89-1.58,5,5,0,0,1,2.21-.48c1.79,0,3,.62,3.61,1.86a6.52,6.52,0,0,1,.52,2.92v8H157v-7.91a4.22,4.22,0,0,0-.34-1.85,2,2,0,0,0-2-1.17,4.21,4.21,0,0,0-1.23.15,3.14,3.14,0,0,0-1.53,1,3,3,0,0,0-.68,1.28,8.41,8.41,0,0,0-.16,1.9v6.57h-2.11Z"/><text class="cls-31" transform="translate(67.12 425.47)">Fertilizer</text><path d="M119.61,458a6.12,6.12,0,0,1,2,3.92h-2.27a4.79,4.79,0,0,0-1.52-2.64,4.71,4.71,0,0,0-3.18-1,5,5,0,0,0-4,1.79q-1.55,1.79-1.54,5.48a8,8,0,0,0,1.39,4.91,4.81,4.81,0,0,0,4.14,1.88,4.33,4.33,0,0,0,3.85-2,7.54,7.54,0,0,0,1-2.74h2.27a7.81,7.81,0,0,1-2,4.56,7.06,7.06,0,0,1-5.47,2.21,7.15,7.15,0,0,1-5-1.82c-1.76-1.6-2.65-4.07-2.65-7.42a9.61,9.61,0,0,1,2-6.25,7.24,7.24,0,0,1,5.95-2.65A7,7,0,0,1,119.61,458Z"/><path d="M124.54,461.38h2v2.17a4.76,4.76,0,0,1,1.2-1.54,3.18,3.18,0,0,1,2.22-.91h.2l.48.05v2.23a2.45,2.45,0,0,0-.35-.05H130a3,3,0,0,0-2.45,1,3.62,3.62,0,0,0-.86,2.37v7.21h-2.11Z"/><path d="M141.57,462.64a6.32,6.32,0,0,1,1.67,4.75,8.18,8.18,0,0,1-1.47,5,5.3,5.3,0,0,1-4.55,2,5.12,5.12,0,0,1-4.09-1.75,7,7,0,0,1-1.51-4.7,7.49,7.49,0,0,1,1.6-5A5.35,5.35,0,0,1,137.5,461,5.62,5.62,0,0,1,141.57,462.64ZM140.26,471a7.91,7.91,0,0,0,.77-3.53,6.39,6.39,0,0,0-.55-2.86,3.14,3.14,0,0,0-3-1.73,3,3,0,0,0-2.78,1.47,6.91,6.91,0,0,0-.87,3.56,6,6,0,0,0,.87,3.34,3.05,3.05,0,0,0,2.76,1.33A2.86,2.86,0,0,0,140.26,471Z"/><path d="M145.65,461.44h2.06v1.67a5.11,5.11,0,0,1,1.39-1.33,4.45,4.45,0,0,1,2.51-.7,4.71,4.71,0,0,1,3.63,1.63,6.67,6.67,0,0,1,1.5,4.67q0,4.11-2.16,5.86a4.84,4.84,0,0,1-3.17,1.12,4.36,4.36,0,0,1-2.39-.62,5.52,5.52,0,0,1-1.26-1.21v6.41h-2.11Zm7.94,9.84a5.9,5.9,0,0,0,1-3.7,6.89,6.89,0,0,0-.44-2.58,3.19,3.19,0,0,0-6,.12,8.7,8.7,0,0,0-.43,3,6.28,6.28,0,0,0,.43,2.47,3,3,0,0,0,3,1.95A3.05,3.05,0,0,0,153.59,471.28Z"/><path d="M80.52,490.18h2v2.17a4.82,4.82,0,0,1,1.21-1.54,3.15,3.15,0,0,1,2.21-.91h.2l.48,0v2.23a2.33,2.33,0,0,0-.34-.05h-.35a3,3,0,0,0-2.45,1,3.59,3.59,0,0,0-.85,2.37v7.21H80.52Z"/><path d="M96.2,490.53a4.77,4.77,0,0,1,1.9,1.62,5.64,5.64,0,0,1,.84,2.22,14.86,14.86,0,0,1,.19,2.76H90a5.46,5.46,0,0,0,.89,3.08,3,3,0,0,0,2.6,1.15,3.32,3.32,0,0,0,2.61-1.09,3.86,3.86,0,0,0,.78-1.47H99a4.45,4.45,0,0,1-.54,1.54,5.73,5.73,0,0,1-1,1.39A4.87,4.87,0,0,1,95,503a6.83,6.83,0,0,1-1.71.19,5.24,5.24,0,0,1-4-1.71,6.62,6.62,0,0,1-1.61-4.77,7.22,7.22,0,0,1,1.63-4.91,5.34,5.34,0,0,1,4.26-1.89A5.64,5.64,0,0,1,96.2,490.53Zm.76,4.93a5.51,5.51,0,0,0-.59-2.19,3,3,0,0,0-2.87-1.53,3.16,3.16,0,0,0-2.42,1.05,4,4,0,0,0-1,2.67Z"/><path d="M103.05,498.8a3,3,0,0,0,.54,1.61,3.41,3.41,0,0,0,2.82,1,4.25,4.25,0,0,0,2.11-.51,1.69,1.69,0,0,0,.91-1.57,1.35,1.35,0,0,0-.73-1.23,9,9,0,0,0-1.83-.6l-1.71-.42a8.44,8.44,0,0,1-2.4-.89,2.66,2.66,0,0,1-1.38-2.37,3.57,3.57,0,0,1,1.3-2.88,5.18,5.18,0,0,1,3.49-1.1,4.89,4.89,0,0,1,4.15,1.66,3.55,3.55,0,0,1,.77,2.27h-2a2.35,2.35,0,0,0-.52-1.29,3.34,3.34,0,0,0-2.58-.83,3.1,3.1,0,0,0-1.85.46,1.4,1.4,0,0,0-.63,1.2,1.48,1.48,0,0,0,.83,1.31,5.3,5.3,0,0,0,1.41.51l1.42.34a10.92,10.92,0,0,1,3.1,1.07,2.83,2.83,0,0,1,1.23,2.54,3.89,3.89,0,0,1-1.28,2.9,5.55,5.55,0,0,1-3.93,1.21c-1.89,0-3.22-.42-4-1.27A4.76,4.76,0,0,1,101,498.8Z"/><path d="M113.8,485.52h2.14v2.39H113.8Zm0,4.72h2.14v12.49H113.8Z"/><path d="M126,490.57a5.65,5.65,0,0,1,1.27,1.23v-6.34h2v17.27h-1.9V501a4.53,4.53,0,0,1-1.74,1.67,4.9,4.9,0,0,1-2.3.52,4.66,4.66,0,0,1-3.62-1.76,6.92,6.92,0,0,1-1.53-4.7,8.11,8.11,0,0,1,1.39-4.75,4.56,4.56,0,0,1,4-2A4.42,4.42,0,0,1,126,490.57ZM121.32,500a3,3,0,0,0,2.73,1.36,2.85,2.85,0,0,0,2.39-1.26,5.94,5.94,0,0,0,.94-3.62,5.36,5.36,0,0,0-1-3.52A3,3,0,0,0,124,491.8a3.16,3.16,0,0,0-2.57,1.22,5.59,5.59,0,0,0-1,3.59A6.22,6.22,0,0,0,121.32,500Z"/><path d="M134.59,490.18v8.34a3.73,3.73,0,0,0,.29,1.57,2.07,2.07,0,0,0,2.05,1.12,2.89,2.89,0,0,0,2.92-2,8,8,0,0,0,.42-2.89v-6.17h2.11v12.55h-2l0-1.85a4.23,4.23,0,0,1-1,1.21,4.33,4.33,0,0,1-2.87,1c-1.76,0-3-.59-3.59-1.79a5.35,5.35,0,0,1-.52-2.57v-8.53Z"/><path d="M153.58,490.53a4.84,4.84,0,0,1,1.9,1.62,5.63,5.63,0,0,1,.83,2.22,14,14,0,0,1,.19,2.76h-9.13a5.46,5.46,0,0,0,.9,3.08,3,3,0,0,0,2.59,1.15,3.34,3.34,0,0,0,2.62-1.09,3.84,3.84,0,0,0,.77-1.47h2.08a4.5,4.5,0,0,1-.55,1.54,5.71,5.71,0,0,1-1,1.39,5,5,0,0,1-2.36,1.26,6.94,6.94,0,0,1-1.71.19,5.22,5.22,0,0,1-4-1.71,6.63,6.63,0,0,1-1.62-4.77,7.22,7.22,0,0,1,1.63-4.91A5.37,5.37,0,0,1,151,489.9,5.65,5.65,0,0,1,153.58,490.53Zm.75,4.93a5.35,5.35,0,0,0-.59-2.19,3,3,0,0,0-2.87-1.53,3.17,3.17,0,0,0-2.42,1.05,4,4,0,0,0-1,2.67Z"/><text class="cls-32" transform="translate(354.78 399.56)"><tspan class="cls-33">F</tspan><tspan x="10.94" y="0">eed</tspan></text><text class="cls-32" transform="translate(559.18 258.62)"><tspan class="cls-34">C</tspan><tspan class="cls-35" x="13.66" y="0">o</tspan><tspan class="cls-36" x="26.66" y="0">w</tspan><tspan class="cls-37" x="44.23" y="0">-</tspan><tspan x="52.03" y="0">calf</tspan></text><text class="cls-38" transform="translate(784.62 408.34)">F<tspan class="cls-39" x="10.94" y="0">eedlot</tspan></text><text class="cls-32" transform="translate(1005.04 402.2)"><tspan class="cls-40">P</tspan><tspan class="cls-41" x="12.38" y="0">r</tspan><tspan x="19.99" y="0">o</tspan><tspan class="cls-42" x="33.17" y="0">c</tspan><tspan class="cls-39" x="43.78" y="0">essing</tspan></text><text class="cls-32" transform="translate(1205.2 407.22)"><tspan class="cls-34">C</tspan><tspan x="13.66" y="0">onsumption</tspan></text></svg>